<svg width="38" height="37" viewBox="0 0 38 37" fill="none" xmlns="http://www.w3.org/2000/svg">
<path d="M14.453 9.94082C12.4059 12.6907 9.11726 13.7071 7.10775 12.2111C5.09824 10.7151 5.12877 7.27313 7.17595 4.52327C9.22312 1.77341 12.5117 0.756969 14.5212 2.25298C16.5307 3.749 16.5002 7.19096 14.453 9.94082Z" fill="#FFDE59"/>
<path d="M18.4715 17.2811C23.822 22.3547 19.7912 36.5486 14.653 36.752C9.51482 36.9554 11.9675 30.4224 8.62858 28.028C5.28962 25.6335 -2.15701 23.4409 0.789737 19.42C3.73648 15.399 13.5216 12.5873 18.4715 17.2811Z" fill="#FFDE59"/>
<path d="M27.2805 9.26157C25.2952 12.0564 22.0301 13.146 19.9877 11.6952C17.9453 10.2444 17.899 6.80261 19.8843 4.00776C21.8696 1.2129 25.1347 0.123332 27.1771 1.57413C29.2195 3.02493 29.2658 6.46672 27.2805 9.26157Z" fill="#FFDE59"/>
<path d="M34.1714 18.6747C31.4032 20.697 27.9611 20.6964 26.4833 18.6735C25.0055 16.6505 26.0516 13.3712 28.8198 11.349C31.5881 9.32672 35.0302 9.32728 36.508 11.3502C37.9858 13.3732 36.9397 16.6525 34.1714 18.6747Z" fill="#FFDE59"/>
<path d="M31.5528 31.6016C28.4606 33.0819 25.077 32.4501 23.9952 30.1904C22.9135 27.9308 24.5432 24.899 27.6354 23.4187C30.7275 21.9384 34.1111 22.5702 35.1929 24.8298C36.2747 27.0895 34.6449 30.1213 31.5528 31.6016Z" fill="#FFDE59"/>
</svg>
