<svg width="703" height="658" viewBox="0 0 703 658" fill="none" xmlns="http://www.w3.org/2000/svg">
<path d="M672.453 16.9408C670.406 19.6907 667.117 20.7071 665.108 19.2111C663.098 17.7151 663.129 14.2731 665.176 11.5233C667.223 8.77341 670.512 7.75697 672.521 9.25298C674.531 10.749 674.5 14.191 672.453 16.9408Z" fill="#FFDE59"/>
<path d="M676.472 24.2811C681.822 29.3547 677.791 43.5486 672.653 43.752C667.515 43.9554 669.968 37.4224 666.629 35.028C663.29 32.6335 655.843 30.4409 658.79 26.42C661.736 22.399 671.522 19.5873 676.472 24.2811Z" fill="#FFDE59"/>
<path d="M685.28 16.2616C683.295 19.0564 680.03 20.146 677.988 18.6952C675.945 17.2444 675.899 13.8026 677.884 11.0078C679.87 8.2129 683.135 7.12333 685.177 8.57413C687.219 10.0249 687.266 13.4667 685.28 16.2616Z" fill="#FFDE59"/>
<path d="M692.171 25.6747C689.403 27.697 685.961 27.6964 684.483 25.6735C683.005 23.6505 684.052 20.3712 686.82 18.349C689.588 16.3267 693.03 16.3273 694.508 18.3502C695.986 20.3732 694.94 23.6525 692.171 25.6747Z" fill="#FFDE59"/>
<path d="M689.553 38.6016C686.461 40.0819 683.077 39.4501 681.995 37.1904C680.913 34.9308 682.543 31.899 685.635 30.4187C688.728 28.9384 692.111 29.5702 693.193 31.8298C694.275 34.0895 692.645 37.1213 689.553 38.6016Z" fill="#FFDE59"/>
<path d="M-6.67443 504.553C-8.04064 507.697 -11.0108 509.437 -13.3085 508.438C-15.6062 507.44 -16.3614 504.082 -14.9951 500.937C-13.6289 497.793 -10.6588 496.054 -8.36105 497.052C-6.06335 498.05 -5.30823 501.409 -6.67443 504.553Z" fill="#FFDE59"/>
<path d="M-1.08805 510.783C5.27836 514.503 4.59039 529.242 -0.366068 530.612C-5.32252 531.982 -4.4241 525.062 -8.22111 523.492C-12.0181 521.921 -19.7685 521.485 -17.8163 516.898C-15.864 512.311 -6.97782 507.342 -1.08805 510.783Z" fill="#FFDE59"/>
<path d="M5.66018 500.966C4.36448 504.14 1.43385 505.946 -0.885557 504.999C-3.20496 504.052 -4.03484 500.711 -2.73913 497.538C-1.44343 494.364 1.4872 492.558 3.80661 493.505C6.12601 494.452 6.95589 497.793 5.66018 500.966Z" fill="#FFDE59"/>
<path d="M14.516 508.56C12.2819 511.16 8.93032 511.945 7.03017 510.312C5.13001 508.679 5.4008 505.248 7.63498 502.648C9.86916 500.048 13.2207 499.263 15.1209 500.896C17.021 502.529 16.7502 505.96 14.516 508.56Z" fill="#FFDE59"/>
<path d="M14.914 521.744C12.2409 523.89 8.80233 524.046 7.23381 522.093C5.6653 520.14 6.56078 516.816 9.23392 514.67C11.9071 512.523 15.3456 512.367 16.9141 514.32C18.4826 516.274 17.5872 519.597 14.914 521.744Z" fill="#FFDE59"/>
<path d="M100.326 524.553C98.9595 527.697 95.9893 529.437 93.6916 528.438C91.3939 527.44 90.6388 524.082 92.005 520.937C93.3712 517.793 96.3414 516.054 98.6391 517.052C100.937 518.05 101.692 521.409 100.326 524.553Z" fill="#FFDE59"/>
<path d="M105.912 530.783C112.278 534.503 111.591 549.242 106.634 550.612C101.678 551.982 102.576 545.062 98.779 543.492C94.982 541.921 87.2316 541.485 89.1838 536.898C91.1361 532.311 100.022 527.342 105.912 530.783Z" fill="#FFDE59"/>
<path d="M112.66 520.966C111.365 524.14 108.434 525.946 106.115 524.999C103.795 524.052 102.965 520.711 104.261 517.538C105.557 514.364 108.487 512.558 110.807 513.505C113.126 514.452 113.956 517.793 112.66 520.966Z" fill="#FFDE59"/>
<path d="M121.516 528.56C119.282 531.16 115.93 531.945 114.03 530.312C112.13 528.679 112.401 525.248 114.635 522.648C116.869 520.048 120.221 519.263 122.121 520.896C124.021 522.529 123.75 525.96 121.516 528.56Z" fill="#FFDE59"/>
<path d="M121.914 541.744C119.241 543.89 115.802 544.046 114.234 542.093C112.665 540.14 113.561 536.816 116.234 534.67C118.907 532.523 122.346 532.367 123.914 534.32C125.483 536.274 124.587 539.597 121.914 541.744Z" fill="#FFDE59"/>
<path d="M12.3256 625.553C10.9594 628.697 7.98918 630.437 5.69148 629.438C3.39378 628.44 2.63865 625.082 4.00486 621.937C5.37106 618.793 8.34125 617.054 10.6389 618.052C12.9366 619.05 13.6918 622.409 12.3256 625.553Z" fill="#FFDE59"/>
<path d="M17.912 631.783C24.2784 635.503 23.5904 650.242 18.6339 651.612C13.6775 652.982 14.5759 646.062 10.7789 644.492C6.98189 642.921 -0.768512 642.485 1.18372 637.898C3.13595 633.311 12.0222 628.342 17.912 631.783Z" fill="#FFDE59"/>
<path d="M24.6602 621.966C23.3645 625.14 20.4339 626.946 18.1144 625.999C15.795 625.052 14.9652 621.711 16.2609 618.538C17.5566 615.364 20.4872 613.558 22.8066 614.505C25.126 615.452 25.9559 618.793 24.6602 621.966Z" fill="#FFDE59"/>
<path d="M33.516 629.56C31.2819 632.16 27.9303 632.945 26.0302 631.312C24.13 629.679 24.4008 626.248 26.635 623.648C28.8692 621.048 32.2207 620.263 34.1209 621.896C36.021 623.529 35.7502 626.96 33.516 629.56Z" fill="#FFDE59"/>
<path d="M33.914 642.744C31.2409 644.89 27.8023 645.046 26.2338 643.093C24.6653 641.14 25.5608 637.816 28.2339 635.67C30.9071 633.523 34.3456 633.367 35.9141 635.32C37.4826 637.274 36.5872 640.597 33.914 642.744Z" fill="#FFDE59"/>
<path d="M171.326 410.553C169.959 413.697 166.989 415.437 164.692 414.438C162.394 413.44 161.639 410.082 163.005 406.937C164.371 403.793 167.341 402.054 169.639 403.052C171.937 404.05 172.692 407.409 171.326 410.553Z" fill="#FFDE59"/>
<path d="M176.912 416.783C183.278 420.503 182.591 435.242 177.634 436.612C172.678 437.982 173.576 431.062 169.779 429.492C165.982 427.921 158.232 427.485 160.184 422.898C162.136 418.311 171.022 413.342 176.912 416.783Z" fill="#FFDE59"/>
<path d="M183.66 406.966C182.365 410.14 179.434 411.946 177.115 410.999C174.795 410.052 173.965 406.711 175.261 403.538C176.557 400.364 179.487 398.558 181.807 399.505C184.126 400.452 184.956 403.793 183.66 406.966Z" fill="#FFDE59"/>
<path d="M192.516 414.56C190.282 417.16 186.93 417.945 185.03 416.312C183.13 414.679 183.401 411.248 185.635 408.648C187.869 406.048 191.221 405.263 193.121 406.896C195.021 408.529 194.75 411.96 192.516 414.56Z" fill="#FFDE59"/>
<path d="M192.914 427.744C190.241 429.89 186.802 430.046 185.234 428.093C183.665 426.14 184.561 422.816 187.234 420.67C189.907 418.523 193.346 418.367 194.914 420.32C196.483 422.274 195.587 425.597 192.914 427.744Z" fill="#FFDE59"/>
<path d="M179.111 266.228C177.064 268.978 173.775 269.995 171.766 268.499C169.756 267.003 169.787 263.561 171.834 260.811C173.881 258.061 177.17 257.045 179.179 258.541C181.189 260.037 181.158 263.479 179.111 266.228Z" fill="#FFDE59"/>
<path d="M183.13 273.569C188.48 278.642 184.449 292.836 179.311 293.04C174.173 293.243 176.626 286.71 173.287 284.316C169.948 281.921 162.501 279.729 165.448 275.708C168.395 271.687 178.18 268.875 183.13 273.569Z" fill="#FFDE59"/>
<path d="M191.939 265.549C189.953 268.344 186.688 269.434 184.646 267.983C182.603 266.532 182.557 263.09 184.543 260.295C186.528 257.501 189.793 256.411 191.835 257.862C193.878 259.313 193.924 262.754 191.939 265.549Z" fill="#FFDE59"/>
<path d="M198.83 274.962C196.061 276.985 192.619 276.984 191.142 274.961C189.664 272.938 190.71 269.659 193.478 267.637C196.246 265.614 199.688 265.615 201.166 267.638C202.644 269.661 201.598 272.94 198.83 274.962Z" fill="#FFDE59"/>
<path d="M196.211 287.889C193.119 289.37 189.735 288.738 188.653 286.478C187.572 284.218 189.201 281.187 192.294 279.706C195.386 278.226 198.769 278.858 199.851 281.117C200.933 283.377 199.303 286.409 196.211 287.889Z" fill="#FFDE59"/>
<path d="M310.453 286.941C308.406 289.691 305.117 290.707 303.108 289.211C301.098 287.715 301.129 284.273 303.176 281.523C305.223 278.773 308.512 277.757 310.521 279.253C312.531 280.749 312.5 284.191 310.453 286.941Z" fill="#FFDE59"/>
<path d="M314.472 294.281C319.822 299.355 315.791 313.549 310.653 313.752C305.515 313.955 307.968 307.422 304.629 305.028C301.29 302.633 293.843 300.441 296.79 296.42C299.736 292.399 309.522 289.587 314.472 294.281Z" fill="#FFDE59"/>
<path d="M323.28 286.262C321.295 289.056 318.03 290.146 315.988 288.695C313.945 287.244 313.899 283.803 315.884 281.008C317.87 278.213 321.135 277.123 323.177 278.574C325.219 280.025 325.266 283.467 323.28 286.262Z" fill="#FFDE59"/>
<path d="M330.171 295.675C327.403 297.697 323.961 297.696 322.483 295.673C321.005 293.651 322.052 290.371 324.82 288.349C327.588 286.327 331.03 286.327 332.508 288.35C333.986 290.373 332.94 293.652 330.171 295.675Z" fill="#FFDE59"/>
<path d="M327.553 308.602C324.461 310.082 321.077 309.45 319.995 307.19C318.913 304.931 320.543 301.899 323.635 300.419C326.728 298.938 330.111 299.57 331.193 301.83C332.275 304.089 330.645 307.121 327.553 308.602Z" fill="#FFDE59"/>
<path d="M336.453 163.941C334.406 166.691 331.117 167.707 329.108 166.211C327.098 164.715 327.129 161.273 329.176 158.523C331.223 155.773 334.512 154.757 336.521 156.253C338.531 157.749 338.5 161.191 336.453 163.941Z" fill="#FFDE59"/>
<path d="M340.472 171.281C345.822 176.355 341.791 190.549 336.653 190.752C331.515 190.955 333.968 184.422 330.629 182.028C327.29 179.633 319.843 177.441 322.79 173.42C325.736 169.399 335.522 166.587 340.472 171.281Z" fill="#FFDE59"/>
<path d="M349.28 163.262C347.295 166.056 344.03 167.146 341.988 165.695C339.945 164.244 339.899 160.803 341.884 158.008C343.87 155.213 347.135 154.123 349.177 155.574C351.219 157.025 351.266 160.467 349.28 163.262Z" fill="#FFDE59"/>
<path d="M356.171 172.675C353.403 174.697 349.961 174.696 348.483 172.673C347.005 170.651 348.052 167.371 350.82 165.349C353.588 163.327 357.03 163.327 358.508 165.35C359.986 167.373 358.94 170.652 356.171 172.675Z" fill="#FFDE59"/>
<path d="M353.553 185.602C350.461 187.082 347.077 186.45 345.995 184.19C344.913 181.931 346.543 178.899 349.635 177.419C352.728 175.938 356.111 176.57 357.193 178.83C358.275 181.089 356.645 184.121 353.553 185.602Z" fill="#FFDE59"/>
<path d="M487.453 208.941C485.406 211.691 482.117 212.707 480.108 211.211C478.098 209.715 478.129 206.273 480.176 203.523C482.223 200.773 485.512 199.757 487.521 201.253C489.531 202.749 489.5 206.191 487.453 208.941Z" fill="#FFDE59"/>
<path d="M491.472 216.281C496.822 221.355 492.791 235.549 487.653 235.752C482.515 235.955 484.968 229.422 481.629 227.028C478.29 224.633 470.843 222.441 473.79 218.42C476.736 214.399 486.522 211.587 491.472 216.281Z" fill="#FFDE59"/>
<path d="M500.28 208.262C498.295 211.056 495.03 212.146 492.988 210.695C490.945 209.244 490.899 205.803 492.884 203.008C494.87 200.213 498.135 199.123 500.177 200.574C502.219 202.025 502.266 205.467 500.28 208.262Z" fill="#FFDE59"/>
<path d="M507.171 217.675C504.403 219.697 500.961 219.696 499.483 217.673C498.005 215.651 499.052 212.371 501.82 210.349C504.588 208.327 508.03 208.327 509.508 210.35C510.986 212.373 509.94 215.652 507.171 217.675Z" fill="#FFDE59"/>
<path d="M504.553 230.602C501.461 232.082 498.077 231.45 496.995 229.19C495.913 226.931 497.543 223.899 500.635 222.419C503.728 220.938 507.111 221.57 508.193 223.83C509.275 226.089 507.645 229.121 504.553 230.602Z" fill="#FFDE59"/>
<path d="M515.453 88.9408C513.406 91.6907 510.117 92.7071 508.108 91.2111C506.098 89.7151 506.129 86.2731 508.176 83.5233C510.223 80.7734 513.512 79.757 515.521 81.253C517.531 82.749 517.5 86.191 515.453 88.9408Z" fill="#FFDE59"/>
<path d="M519.472 96.2811C524.822 101.355 520.791 115.549 515.653 115.752C510.515 115.955 512.968 109.422 509.629 107.028C506.29 104.633 498.843 102.441 501.79 98.42C504.736 94.399 514.522 91.5873 519.472 96.2811Z" fill="#FFDE59"/>
<path d="M528.28 88.2616C526.295 91.0564 523.03 92.146 520.988 90.6952C518.945 89.2444 518.899 85.8026 520.884 83.0078C522.87 80.2129 526.135 79.1233 528.177 80.5741C530.219 82.0249 530.266 85.4667 528.28 88.2616Z" fill="#FFDE59"/>
<path d="M535.171 97.6747C532.403 99.697 528.961 99.6964 527.483 97.6735C526.005 95.6505 527.052 92.3712 529.82 90.349C532.588 88.3267 536.03 88.3273 537.508 90.3502C538.986 92.3732 537.94 95.6525 535.171 97.6747Z" fill="#FFDE59"/>
<path d="M532.553 110.602C529.461 112.082 526.077 111.45 524.995 109.19C523.913 106.931 525.543 103.899 528.635 102.419C531.728 100.938 535.111 101.57 536.193 103.83C537.275 106.089 535.645 109.121 532.553 110.602Z" fill="#FFDE59"/>
<path d="M654.453 137.941C652.406 140.691 649.117 141.707 647.108 140.211C645.098 138.715 645.129 135.273 647.176 132.523C649.223 129.773 652.512 128.757 654.521 130.253C656.531 131.749 656.5 135.191 654.453 137.941Z" fill="#FFDE59"/>
<path d="M658.472 145.281C663.822 150.355 659.791 164.549 654.653 164.752C649.515 164.955 651.968 158.422 648.629 156.028C645.29 153.633 637.843 151.441 640.79 147.42C643.736 143.399 653.522 140.587 658.472 145.281Z" fill="#FFDE59"/>
<path d="M667.28 137.262C665.295 140.056 662.03 141.146 659.988 139.695C657.945 138.244 657.899 134.803 659.884 132.008C661.87 129.213 665.135 128.123 667.177 129.574C669.219 131.025 669.266 134.467 667.28 137.262Z" fill="#FFDE59"/>
<path d="M674.171 146.675C671.403 148.697 667.961 148.696 666.483 146.673C665.005 144.651 666.052 141.371 668.82 139.349C671.588 137.327 675.03 137.327 676.508 139.35C677.986 141.373 676.94 144.652 674.171 146.675Z" fill="#FFDE59"/>
<path d="M671.553 159.602C668.461 161.082 665.077 160.45 663.995 158.19C662.913 155.931 664.543 152.899 667.635 151.419C670.728 149.938 674.111 150.57 675.193 152.83C676.275 155.089 674.645 158.121 671.553 159.602Z" fill="#FFDE59"/>
<path d="M75.3256 401.553C73.9594 404.697 70.9892 406.437 68.6915 405.438C66.3938 404.44 65.6386 401.082 67.0049 397.937C68.3711 394.793 71.3412 393.054 73.6389 394.052C75.9366 395.05 76.6918 398.409 75.3256 401.553Z" fill="#FFDE59"/>
<path d="M80.912 407.783C87.2784 411.503 86.5904 426.242 81.6339 427.612C76.6775 428.982 77.5759 422.062 73.7789 420.492C69.9819 418.921 62.2315 418.485 64.1837 413.898C66.136 409.311 75.0222 404.342 80.912 407.783Z" fill="#FFDE59"/>
<path d="M87.6602 397.966C86.3645 401.14 83.4339 402.946 81.1144 401.999C78.795 401.052 77.9652 397.711 79.2609 394.538C80.5566 391.364 83.4872 389.558 85.8066 390.505C88.126 391.452 88.9559 394.793 87.6602 397.966Z" fill="#FFDE59"/>
<path d="M96.516 405.56C94.2819 408.16 90.9303 408.945 89.0302 407.312C87.13 405.679 87.4008 402.248 89.635 399.648C91.8692 397.048 95.2207 396.263 97.1209 397.896C99.021 399.529 98.7502 402.96 96.516 405.56Z" fill="#FFDE59"/>
<path d="M96.914 418.744C94.2409 420.89 90.8023 421.046 89.2338 419.093C87.6653 417.14 88.5608 413.816 91.2339 411.67C93.9071 409.523 97.3456 409.367 98.9141 411.32C100.483 413.274 99.5872 416.597 96.914 418.744Z" fill="#FFDE59"/>
</svg>
