<svg width="38" height="32" viewBox="0 0 38 32" fill="none" xmlns="http://www.w3.org/2000/svg">
<g id="Vector">
<path d="M14.453 4.94082C12.4059 7.69067 9.11726 8.70712 7.10775 7.2111C5.09824 5.71509 5.12877 2.27313 7.17595 -0.476731C9.22312 -3.22659 12.5117 -4.24303 14.5212 -2.74702C16.5307 -1.251 16.5002 2.19096 14.453 4.94082Z" fill="white"/>
<path d="M18.4715 12.2811C23.822 17.3547 19.7912 31.5486 14.653 31.752C9.51482 31.9554 11.9675 25.4224 8.62858 23.028C5.28962 20.6335 -2.15701 18.4409 0.789737 14.42C3.73648 10.399 13.5216 7.58735 18.4715 12.2811Z" fill="white"/>
<path d="M27.2805 4.26157C25.2952 7.05643 22.0301 8.146 19.9877 6.6952C17.9453 5.2444 17.899 1.80261 19.8843 -0.992242C21.8696 -3.7871 25.1347 -4.87667 27.1771 -3.42587C29.2195 -1.97507 29.2658 1.46672 27.2805 4.26157Z" fill="white"/>
<path d="M34.1714 13.6747C31.4032 15.697 27.9611 15.6964 26.4833 13.6735C25.0055 11.6505 26.0516 8.37124 28.8198 6.34898C31.5881 4.32672 35.0302 4.32728 36.508 6.35023C37.9858 8.37317 36.9397 11.6525 34.1714 13.6747Z" fill="white"/>
<path d="M31.5528 26.6016C28.4606 28.0819 25.077 27.4501 23.9952 25.1904C22.9135 22.9308 24.5432 19.899 27.6354 18.4187C30.7275 16.9384 34.1111 17.5702 35.1929 19.8298C36.2747 22.0895 34.6449 25.1213 31.5528 26.6016Z" fill="white"/>
</g>
</svg>
