<svg width="38" height="20" viewBox="0 0 38 20" fill="none" xmlns="http://www.w3.org/2000/svg">
<g id="Vector">
<path d="M14.453 -7.05918C12.4059 -4.30933 9.11726 -3.29288 7.10775 -4.7889C5.09824 -6.28491 5.12877 -9.72687 7.17595 -12.4767C9.22312 -15.2266 12.5117 -16.243 14.5212 -14.747C16.5307 -13.251 16.5002 -9.80904 14.453 -7.05918Z" fill="white"/>
<path d="M18.4715 0.281093C23.822 5.35469 19.7912 19.5486 14.653 19.752C9.51482 19.9554 11.9675 13.4224 8.62858 11.028C5.28962 8.63347 -2.15701 6.44092 0.789737 2.41997C3.73648 -1.60099 13.5216 -4.41265 18.4715 0.281093Z" fill="white"/>
<path d="M27.2805 -7.73843C25.2952 -4.94357 22.0301 -3.854 19.9877 -5.3048C17.9453 -6.7556 17.899 -10.1974 19.8843 -12.9922C21.8696 -15.7871 25.1347 -16.8767 27.1771 -15.4259C29.2195 -13.9751 29.2658 -10.5333 27.2805 -7.73843Z" fill="white"/>
<path d="M34.1714 1.67471C31.4032 3.69696 27.9611 3.6964 26.4833 1.67346C25.0055 -0.349484 26.0516 -3.62876 28.8198 -5.65102C31.5881 -7.67328 35.0302 -7.67272 36.508 -5.64977C37.9858 -3.62683 36.9397 -0.34755 34.1714 1.67471Z" fill="white"/>
<path d="M31.5528 14.6016C28.4606 16.0819 25.077 15.4501 23.9952 13.1904C22.9135 10.9308 24.5432 7.89896 27.6354 6.41866C30.7275 4.93837 34.1111 5.57016 35.1929 7.82981C36.2747 10.0895 34.6449 13.1213 31.5528 14.6016Z" fill="white"/>
</g>
</svg>
